<svg id="svg" version="1.1" width="529" height="500" xmlns="http://www.w3.org/2000/svg" xmlns:xlink="http://www.w3.org/1999/xlink" style="display: block;"><g id="svgg"><path id="path0" d="M0.000 144.945 L 0.000 289.890 2.457 287.362 C 5.101 284.642,9.783 282.320,17.013 280.145 C 19.509 279.394,21.873 278.493,22.268 278.142 C 22.664 277.792,23.396 277.505,23.896 277.505 C 25.625 277.505,37.451 271.507,42.840 267.897 C 59.659 256.630,71.746 242.561,83.471 220.603 C 93.341 202.120,91.452 197.423,71.078 189.793 C 65.169 187.581,62.588 186.501,55.198 183.153 C 39.923 176.231,35.840 164.898,45.486 156.193 C 52.923 149.483,65.056 149.062,76.601 155.115 C 79.954 156.872,87.222 156.777,89.533 154.944 L 91.730 153.201 91.272 130.098 C 90.442 88.274,92.292 73.874,100.794 55.957 C 108.774 39.141,121.146 26.395,139.509 16.072 C 146.117 12.357,159.048 6.805,161.093 6.805 C 161.857 6.805,162.668 6.504,162.895 6.136 C 163.122 5.768,164.248 5.297,165.397 5.088 C 166.546 4.879,170.694 3.989,174.616 3.110 C 178.537 2.231,183.196 1.512,184.968 1.512 C 186.740 1.512,188.401 1.172,188.658 0.756 C 188.968 0.254,157.412 -0.000,94.563 -0.000 L 0.000 0.000 0.000 144.945 M213.611 0.756 C 213.868 1.172,215.723 1.512,217.733 1.512 C 225.118 1.512,242.352 6.608,253.412 12.061 C 281.769 26.044,302.450 52.582,307.654 81.664 C 310.305 96.481,310.399 101.265,308.854 142.533 C 308.406 154.482,308.744 155.531,313.281 156.267 C 315.971 156.704,323.737 154.796,325.830 153.184 C 327.357 152.008,348.296 152.152,349.490 153.346 C 349.989 153.845,350.853 154.253,351.411 154.253 C 357.105 154.253,361.950 165.534,358.839 171.550 C 356.458 176.155,338.306 187.524,333.335 187.524 C 332.621 187.524,331.826 187.864,331.569 188.280 C 331.312 188.696,330.607 189.036,330.003 189.036 C 327.731 189.036,317.175 194.734,314.510 197.399 C 309.791 202.118,309.821 206.508,314.637 216.635 C 318.339 224.418,325.120 236.127,326.679 237.429 C 326.928 237.637,328.242 239.438,329.599 241.432 C 339.037 255.302,367.548 277.505,375.921 277.505 C 376.522 277.505,377.336 277.796,377.732 278.151 C 378.127 278.507,381.512 279.725,385.255 280.859 C 393.251 283.280,396.841 284.943,398.006 286.767 C 398.471 287.495,399.110 288.091,399.426 288.091 C 399.742 288.091,400.000 223.270,400.000 144.045 L 400.000 0.000 306.572 0.000 C 244.479 0.000,213.300 0.254,213.611 0.756 M0.000 334.549 L 0.000 378.072 95.697 378.072 C 159.302 378.072,191.237 377.818,190.926 377.316 C 190.669 376.900,189.273 376.560,187.823 376.560 C 181.424 376.560,158.015 366.671,151.607 361.261 C 145.403 356.023,128.512 346.450,120.461 343.609 C 112.227 340.703,90.439 339.190,82.042 340.941 C 62.671 344.980,61.105 344.140,55.994 326.984 C 53.397 318.263,52.182 317.270,40.832 314.583 C 25.064 310.849,9.713 305.150,6.637 301.887 C 4.347 299.458,1.512 294.557,1.512 293.027 C 1.512 292.441,1.172 291.750,0.756 291.493 C 0.255 291.184,0.000 305.726,0.000 334.549 M398.992 291.619 C 398.715 291.897,398.488 292.924,398.488 293.903 C 398.488 298.646,394.287 302.351,384.499 306.239 C 383.667 306.570,381.796 307.346,380.340 307.964 C 376.221 309.714,367.579 312.399,360.302 314.190 C 350.430 316.619,345.749 319.878,344.572 325.142 C 340.757 342.209,335.221 345.646,319.030 341.003 C 315.477 339.984,293.454 340.073,289.047 341.124 C 282.458 342.695,276.039 344.800,271.643 346.829 C 267.916 348.550,249.112 360.193,248.015 361.458 C 244.161 365.905,218.560 376.560,211.728 376.560 C 210.525 376.560,209.331 376.900,209.074 377.316 C 208.763 377.818,240.698 378.072,304.303 378.072 L 400.000 378.072 400.000 334.594 C 400.000 310.681,399.887 291.115,399.748 291.115 C 399.609 291.115,399.269 291.342,398.992 291.619 " stroke="none" fill="#ffffff" fill-rule="evenodd"></path><path id="path1" d="M188.658 0.756 C 188.401 1.172,186.740 1.512,184.968 1.512 C 183.196 1.512,178.537 2.231,174.616 3.110 C 170.694 3.989,166.546 4.879,165.397 5.088 C 164.248 5.297,163.122 5.768,162.895 6.136 C 162.668 6.504,161.857 6.805,161.093 6.805 C 159.048 6.805,146.117 12.357,139.509 16.072 C 121.146 26.395,108.774 39.141,100.794 55.957 C 92.292 73.874,90.442 88.274,91.272 130.098 L 91.730 153.201 89.533 154.944 C 87.222 156.777,79.954 156.872,76.601 155.115 C 65.056 149.062,52.923 149.483,45.486 156.193 C 35.523 165.184,39.861 176.176,56.333 183.680 C 62.845 186.647,64.475 187.323,71.078 189.794 C 91.451 197.421,93.341 202.120,83.471 220.603 C 71.746 242.561,59.659 256.630,42.840 267.897 C 37.414 271.532,25.621 277.505,23.870 277.505 C 23.357 277.505,22.718 277.723,22.450 277.991 C 22.183 278.258,18.721 279.577,14.757 280.922 C 4.500 284.402,-0.965 288.569,0.673 291.661 C 1.065 292.401,1.947 294.295,2.633 295.872 C 6.076 303.781,16.243 308.761,40.832 314.583 C 52.182 317.270,53.397 318.263,55.994 326.984 C 61.105 344.140,62.671 344.980,82.042 340.941 C 90.439 339.190,112.227 340.703,120.461 343.609 C 128.512 346.450,145.403 356.023,151.607 361.261 C 158.015 366.671,181.424 376.560,187.823 376.560 C 189.273 376.560,190.669 376.900,190.926 377.316 C 191.543 378.314,208.457 378.314,209.074 377.316 C 209.331 376.900,210.525 376.560,211.728 376.560 C 218.560 376.560,244.161 365.905,248.015 361.458 C 249.112 360.193,267.916 348.550,271.643 346.829 C 276.039 344.800,282.458 342.695,289.047 341.124 C 293.454 340.073,315.477 339.984,319.030 341.003 C 335.221 345.646,340.757 342.209,344.572 325.142 C 345.749 319.878,350.430 316.619,360.302 314.190 C 367.579 312.399,376.221 309.714,380.340 307.964 C 381.796 307.346,383.667 306.570,384.499 306.239 C 394.340 302.330,398.488 298.648,398.488 293.821 C 398.488 292.798,398.828 291.750,399.244 291.493 C 403.029 289.154,396.594 284.256,385.255 280.845 C 381.512 279.719,378.127 278.507,377.732 278.151 C 377.336 277.796,376.522 277.505,375.921 277.505 C 367.548 277.505,339.037 255.302,329.599 241.432 C 328.242 239.438,326.928 237.637,326.679 237.429 C 325.127 236.133,318.352 224.440,314.631 216.635 C 309.833 206.573,309.809 202.100,314.525 197.385 C 317.178 194.731,327.737 189.036,330.003 189.036 C 330.607 189.036,331.312 188.696,331.569 188.280 C 331.826 187.864,332.621 187.524,333.335 187.524 C 338.306 187.524,356.458 176.155,358.839 171.550 C 361.950 165.534,357.105 154.253,351.411 154.253 C 350.853 154.253,349.989 153.845,349.490 153.346 C 348.296 152.152,327.357 152.008,325.830 153.184 C 323.737 154.796,315.971 156.704,313.281 156.267 C 308.744 155.531,308.406 154.482,308.854 142.533 C 310.399 101.265,310.305 96.481,307.654 81.664 C 302.450 52.582,281.769 26.044,253.412 12.061 C 242.352 6.608,225.118 1.512,217.733 1.512 C 215.723 1.512,213.868 1.172,213.611 0.756 C 213.331 0.303,208.325 0.000,201.134 0.000 C 193.944 0.000,188.938 0.303,188.658 0.756 " stroke="none" fill="#ffff00" fill-rule="evenodd"></path></g></svg>